<?xml version="1.0" encoding="utf-8"?>
<svg xmlns="http://www.w3.org/2000/svg" viewBox="53.221 166.667 446.779 233.893" xmlns:bx="https://boxy-svg.com">
  <g id="Layer_1" style="" transform="matrix(0.155298, 0, 0, 0.155298, 99.25396, 190.349686)">
    <g transform="matrix(1, 0, 0, 1, 9.890822, -102.988914)">
      <path style="fill:#ECF4F7;" d="M447.32,292.288h51.2c0,18.773-15.36,34.133-34.133,34.133H447.32H54.787H37.72 c-18.773,0-34.133-15.36-34.133-34.133h42.667H447.32z M54.787,326.421H447.32c0,37.547-30.72,68.267-68.267,68.267h-256 C85.507,394.688,54.787,363.967,54.787,326.421z"/>
      <path style="fill:#FFD0A1;" d="M98.307,241.088c1.707-10.24,7.68-17.067,16.213-17.067s17.067,5.12,21.333,11.947 c3.413-2.56,7.68-3.413,12.8-3.413c6.827,0,12.8,2.56,17.067,6.827c0.853-13.653,11.947-23.893,25.6-23.893 c8.533,0,17.067,4.267,21.333,11.093c4.267-6.827,12.8-11.093,21.333-11.093c7.68,0,14.507,3.413,18.773,8.533 c3.413-10.24,12.8-17.067,23.893-17.067c14.507,0,25.6,11.093,25.6,25.6c0,0.853,0,0.853,0,1.707 c2.56-0.853,5.973-1.707,8.533-1.707c7.68,0,14.507,3.413,18.773,8.533c3.413-10.24,12.8-17.067,23.893-17.067 c11.947,0,21.333,7.68,24.747,18.773c3.413-0.853,5.973-1.707,9.387-1.707c9.387,0,17.067,5.12,21.333,11.947 c3.413-2.56,7.68-3.413,12.8-3.413c7.68,0,14.507,3.413,18.773,8.533c0,0,15.36-1.707,15.36,25.6c0,8.533-7.68,8.533-8.533,8.533 H46.253c-6.827-12.8-3.413-31.573,17.067-34.133c0.853-8.533,8.533-15.36,17.067-18.773 C86.36,237.674,92.333,238.528,98.307,241.088"/>
    </g>
    <path style="fill: rgb(81, 86, 95); stroke-width: 1;" d="M 388.944 295.965 L 132.944 295.965 C 94.544 295.965 62.971 266.098 60.411 227.698 L 47.611 227.698 C 26.278 227.698 9.211 210.631 9.211 189.298 C 9.211 186.738 10.918 185.031 13.478 185.031 L 508.411 185.031 C 510.971 185.031 512.678 186.738 512.678 189.298 C 512.678 210.631 495.611 227.698 474.278 227.698 L 461.478 227.698 C 458.918 266.099 427.344 295.965 388.944 295.965 Z M 68.944 227.699 C 71.504 260.979 98.811 287.432 132.944 287.432 L 388.944 287.432 C 423.931 287.432 452.944 258.419 452.944 223.432 C 452.944 220.872 454.651 219.165 457.211 219.165 L 474.278 219.165 C 489.638 219.165 501.585 208.072 504.145 193.565 L 18.598 193.565 C 20.305 208.072 33.105 219.165 48.465 219.165 L 423.931 219.165 C 426.491 219.165 428.198 220.872 428.198 223.432 C 428.198 225.992 426.491 227.699 423.931 227.699 L 68.944 227.699 Z M 132.944 159.432 C 132.091 159.432 132.091 159.432 131.237 159.432 L 11.771 108.232 C 9.211 107.379 8.358 104.819 9.211 102.259 C 10.064 99.699 12.624 98.846 15.184 99.699 L 134.651 150.899 C 137.211 151.752 138.064 154.312 137.211 156.872 C 136.358 158.578 134.651 159.432 132.944 159.432 Z M 450.384 159.432 C 449.531 159.432 447.824 158.579 446.971 157.725 C 440.144 150.898 429.904 148.338 420.518 153.458 C 418.811 154.311 416.251 154.311 414.545 151.751 C 409.425 143.218 398.332 139.804 388.945 143.218 C 388.092 144.071 386.385 143.218 385.532 143.218 C 384.679 143.218 383.825 141.511 382.972 140.658 C 380.412 131.271 371.879 124.445 362.492 124.445 C 353.959 124.445 345.425 130.418 342.865 138.098 C 342.012 139.805 341.158 140.658 339.452 140.658 C 337.746 140.658 336.892 140.658 335.185 138.951 C 329.212 132.978 321.532 130.418 312.145 133.831 C 310.438 134.684 309.585 133.831 307.878 132.978 C 307.025 132.125 306.171 130.418 306.171 129.565 L 306.171 128.712 C 306.171 116.765 296.784 107.379 284.838 107.379 C 276.305 107.379 267.771 113.352 265.211 121.032 C 264.358 122.739 263.504 123.592 261.798 123.592 C 260.091 123.592 259.238 123.592 257.531 121.885 C 253.264 117.618 248.144 115.058 242.171 115.058 C 235.344 115.058 228.518 118.471 224.251 124.445 C 222.544 127.005 219.131 127.005 217.424 124.445 C 213.157 118.472 207.184 115.058 199.504 115.058 C 188.411 115.058 179.024 123.591 178.171 134.685 C 178.171 136.392 177.318 138.098 175.611 138.098 C 173.904 138.951 172.198 138.098 171.344 137.245 C 164.517 131.272 155.131 129.565 146.597 134.685 C 144.89 135.538 142.33 135.538 140.624 132.978 C 136.357 127.005 129.531 122.738 122.704 122.738 C 120.144 122.738 118.437 121.031 118.437 118.471 C 118.437 115.911 120.144 114.204 122.704 114.204 C 132.091 114.204 139.771 118.471 145.744 125.297 C 154.277 121.884 163.664 122.737 171.344 127.004 C 175.611 115.057 186.704 106.524 199.504 106.524 C 208.037 106.524 214.864 109.937 220.837 115.911 C 231.077 105.671 248.144 103.964 259.237 112.498 C 264.357 103.965 273.744 97.991 284.837 97.991 C 300.197 97.991 312.144 109.084 314.704 123.591 C 322.384 121.884 330.064 124.444 336.891 128.711 C 342.011 120.178 351.398 114.204 362.491 114.204 C 374.438 114.204 384.678 121.031 389.798 132.124 C 400.891 129.564 412.838 133.831 419.665 142.364 C 431.612 137.244 445.265 140.657 452.945 150.044 C 454.652 151.751 454.652 154.311 452.945 156.017 C 452.944 159.432 452.091 159.432 450.384 159.432 Z M 320.678 74.099 C 318.971 74.099 317.265 73.246 317.265 71.539 C 316.412 69.832 317.265 67.272 318.972 65.566 C 318.972 65.566 333.479 57.886 333.479 43.379 C 333.479 36.552 330.066 33.139 325.799 29.726 C 321.532 25.459 316.412 20.339 316.412 9.246 C 316.412 -10.381 335.185 -19.767 336.039 -19.767 C 337.746 -20.62 340.306 -19.767 342.012 -18.06 C 343.719 -16.353 342.012 -13.793 340.305 -12.087 C 340.305 -12.087 325.798 -4.407 325.798 10.1 C 325.798 16.927 329.211 20.34 333.478 23.753 C 337.745 28.02 342.865 33.14 342.865 44.233 C 342.865 63.86 324.092 73.246 323.238 73.246 C 322.384 74.099 321.531 74.099 320.678 74.099 Z M 184.144 74.099 C 182.437 74.099 180.731 73.246 180.731 71.539 C 179.878 69.832 180.731 67.272 182.438 65.566 C 182.438 65.566 196.945 57.886 196.945 43.379 C 196.945 36.552 193.532 33.139 189.265 29.726 C 184.998 25.459 179.878 20.339 179.878 9.246 C 179.878 -10.381 198.651 -19.767 199.505 -19.767 C 201.212 -20.62 203.772 -19.767 205.478 -18.06 C 206.331 -16.353 205.478 -13.793 203.771 -12.087 C 203.771 -12.087 189.264 -4.407 189.264 10.1 C 189.264 16.927 192.677 20.34 196.944 23.753 C 201.211 28.02 206.331 33.14 206.331 44.233 C 206.331 63.86 187.558 73.246 186.704 73.246 C 185.851 74.099 184.998 74.099 184.144 74.099 Z M 252.411 57.032 C 250.704 57.032 248.998 56.179 248.998 54.472 C 248.145 52.765 248.998 50.205 250.705 48.499 C 250.705 48.499 265.212 40.819 265.212 26.312 C 265.212 19.485 261.799 16.072 257.532 12.659 C 253.265 8.392 248.145 3.272 248.145 -7.821 C 248.145 -18.914 253.265 -23.181 257.532 -28.301 C 261.799 -32.568 265.212 -35.981 265.212 -41.954 C 265.212 -56.461 250.705 -63.287 250.705 -64.141 C 248.998 -64.994 248.145 -67.554 248.998 -70.114 C 249.851 -71.821 252.411 -72.674 254.971 -71.821 C 255.824 -71.821 274.598 -61.581 274.598 -42.808 C 274.598 -32.568 269.478 -27.448 265.211 -22.328 C 260.944 -18.061 257.531 -14.648 257.531 -8.675 C 257.531 -2.702 260.944 1.565 265.211 4.978 C 269.478 9.245 274.598 14.365 274.598 25.458 C 274.598 45.085 255.825 54.471 254.971 54.471 C 254.118 57.032 253.264 57.032 252.411 57.032 Z"/>
  </g>
  <text style="fill: rgb(231, 0, 11); font-family: &quot;Instrument Serif&quot;; font-size: 77px; white-space: pre;" x="60.922" y="281.655">Meal Calorie</text>
  <defs>
    <style bx:fonts="Instrument Serif">@import url(https://fonts.googleapis.com/css2?family=Instrument+Serif%3Aital%2Cwght%400%2C400%3B1%2C400&amp;display=swap);</style>
  </defs>
  <rect x="50.154" y="221.51" width="268.064" height="50.866" style="stroke: rgb(0, 0, 0); fill: rgb(231, 0, 11); stroke-width: 0px; transform-box: fill-box; transform-origin: 50% 50%;" transform="matrix(0.999391, -0.0349, 0.0349, 0.999391, 13.446743, 72.255938)"/>
  <text style="fill: rgb(255, 255, 255); font-family: &quot;Instrument Serif&quot;; font-size: 40.6px; font-style: italic; white-space: pre;" x="73.549" y="332.52">Count Generator</text>
</svg>